<svg xmlns="http://www.w3.org/2000/svg" width="683" height="683" viewBox="-273.5 478 580 580">
  <title>WaterOS Logo</title>

  <defs>
    <clipPath id="circle-clip">
      <circle cx="16.5" cy="768" r="233" />
    </clipPath>
  </defs>

  <circle cx="16.5" cy="768" r="258" fill="none" stroke="#000000" stroke-width="32" />

  <g stroke="#009ef1" stroke-width="14" stroke-linecap="round">
    <line x1="-105.5" y1="700" x2="-105.5" y2="850"/>
    <line x1="-138.5" y1="655" x2="-138.5" y2="850"/>
    <line x1="-171.5" y1="700" x2="-171.5" y2="850"/>
    
    <line x1="138.5" y1="700" x2="138.5" y2="850"/>
    <line x1="171.5" y1="655" x2="171.5" y2="850"/>
    <line x1="204.5" y1="700" x2="204.5" y2="850"/>
  </g>

  <g fill="#009ef1">
    <circle cx="-105.5" cy="700" r="16"/>
    <circle cx="-138.5" cy="655" r="16"/>
    <circle cx="-171.5" cy="700" r="16"/>
    
    <circle cx="138.5" cy="700" r="16"/>
    <circle cx="171.5" cy="655" r="16"/>
    <circle cx="204.5" cy="700" r="16"/>

    <circle cx="-105.5" cy="615" r="11"/>
    <circle cx="-70.0" cy="590" r="16"/>
    
    <circle cx="138.5" cy="615" r="11"/>
    <circle cx="103.0" cy="590" r="16"/>
  </g>

  <path d="M 16.5 545 
           C 48 625, 91.5 665, 91.5 725 
           A 75 75 0 0 1 -58.5 725 
           C -58.5 665, -15 625, 16.5 545 Z" 
        fill="#009ef1"/>

  <g clip-path="url(#circle-clip)">
    <path d="M -250 800 
             C -200 800, -160 775, -110 775 
             C -50 775, -40 815, 16.5 815 
             C 70 815, 90 775, 143 775 
             C 200 775, 230 800, 283 800 
             L 283 1100 L -250 1100 Z" 
          fill="#009ef1"/>
          
    <path d="M -250 825 
             C -200 825, -160 800, -110 800 
             C -50 800, -40 840, 16.5 840 
             C 70 840, 90 800, 143 800 
             C 200 800, 230 825, 283 825 
             L 283 1100 L -250 1100 Z" 
          fill="#006397"/>
          
    <path d="M -250 855 
             C -200 855, -160 830, -110 830 
             C -50 830, -40 870, 16.5 870 
             C 70 870, 90 830, 143 830 
             C 200 830, 230 855, 283 855 
             L 283 1100 L -250 1100 Z" 
          fill="#004163"/>
  </g>
</svg>